<?xml version="1.0" encoding="UTF-8"?><svg id="Livello_1" xmlns="http://www.w3.org/2000/svg" xmlns:xlink="http://www.w3.org/1999/xlink" viewBox="0 0 24 24"><defs><style>.cls-1{fill:url(#Sfumatura_senza_nome_4);}.cls-1,.cls-2{stroke-width:0px;}.cls-2{fill:url(#Sfumatura_senza_nome_4-2);}</style><linearGradient id="Sfumatura_senza_nome_4" x1="3" y1="12" x2="21" y2="12" gradientUnits="userSpaceOnUse"><stop offset="0" stop-color="#50bcbd"/><stop offset="1" stop-color="#a9d2a5"/></linearGradient><linearGradient id="Sfumatura_senza_nome_4-2" x1="11.32" y1="9.36" x2="18.08" y2="9.36" xlink:href="#Sfumatura_senza_nome_4"/></defs><path class="cls-1" d="m14.7,3c-3.48,0-6.3,2.81-6.3,6.29,0,1.43.48,2.81,1.37,3.93l-2.99,2.99h-1.08c-.08,0-.16.03-.21.09l-2.03,2.03c-.61.62-.6,1.62.02,2.23.61.6,1.6.6,2.21,0l2.03-2.03c.06-.06.09-.13.09-.21v-1.08l2.99-2.99c2.73,2.16,6.69,1.7,8.85-1.02,2.16-2.73,1.7-6.69-1.02-8.85-1.11-.88-2.49-1.36-3.92-1.36Zm-7.5,15.18l-1.94,1.94c-.38.38-1,.38-1.38,0-.38-.38-.38-1,0-1.38l1.94-1.94h.95l.42.42v.95Zm.3-1.5l-.18-.18,2.84-2.84c.06.06.12.12.18.18l-2.84,2.84Zm7.2-1.68c-1.32,0-2.6-.46-3.62-1.3-.01-.04-.04-.08-.07-.11l-.6-.6s-.07-.05-.11-.07c-2-2.43-1.65-6.02.79-8.02,2.43-2,6.02-1.65,8.02.79,2,2.43,1.65,6.02-.79,8.02-1.02.84-2.3,1.3-3.62,1.3Z"/><path class="cls-2" d="m16.86,5.41l-.18-.07c-.38-.15-.8-.15-1.17,0l-.53.21c-.18.07-.39.08-.58.02l-.78-.26c-.4-.13-.83-.1-1.2.09-.48.24-.82.67-.95,1.19l-.02.08c-.25,1.01-.14,2.08.33,3.01.27.54.41,1.14.41,1.74,0,.5.12.99.34,1.43.2.4.61.65,1.06.65.15,0,.28-.12.28-.28v-1.95c0-.46.37-.84.84-.84s.84.37.84.84v1.95c0,.15.12.28.28.28.45,0,.86-.25,1.06-.65.22-.44.34-.93.34-1.43,0-.6.14-1.2.41-1.74.47-.93.58-2,.33-3.01-.14-.57-.55-1.03-1.09-1.25Z"/></svg>