<?xml version="1.0" encoding="UTF-8"?><svg id="Livello_1" xmlns="http://www.w3.org/2000/svg" xmlns:xlink="http://www.w3.org/1999/xlink" viewBox="0 0 24 24"><defs><style>.cls-1{fill:url(#Sfumatura_senza_nome_4);}.cls-1,.cls-2,.cls-3,.cls-4,.cls-5,.cls-6{stroke-width:0px;}.cls-2{fill:url(#Sfumatura_senza_nome_4-4);}.cls-3{fill:url(#Sfumatura_senza_nome_4-5);}.cls-4{fill:url(#Sfumatura_senza_nome_4-2);}.cls-5{fill:url(#Sfumatura_senza_nome_4-3);}.cls-6{fill:url(#Sfumatura_senza_nome_4-6);}</style><linearGradient id="Sfumatura_senza_nome_4" x1="14.79" y1="2.68" x2="15.86" y2="2.68" gradientUnits="userSpaceOnUse"><stop offset="0" stop-color="#50bcbd"/><stop offset="1" stop-color="#a9d2a5"/></linearGradient><linearGradient id="Sfumatura_senza_nome_4-2" x1="16.47" y1="2.5" x2="18.82" y2="2.5" xlink:href="#Sfumatura_senza_nome_4"/><linearGradient id="Sfumatura_senza_nome_4-3" x1="17.81" y1="4.57" x2="19.92" y2="4.57" xlink:href="#Sfumatura_senza_nome_4"/><linearGradient id="Sfumatura_senza_nome_4-4" x1="18.6" y1="6.17" x2="22.3" y2="6.17" xlink:href="#Sfumatura_senza_nome_4"/><linearGradient id="Sfumatura_senza_nome_4-5" x1="18.63" y1="8.58" x2="21.29" y2="8.58" xlink:href="#Sfumatura_senza_nome_4"/><linearGradient id="Sfumatura_senza_nome_4-6" x1="1.7" y1="13.89" x2="16.9" y2="13.89" xlink:href="#Sfumatura_senza_nome_4"/></defs><path class="cls-1" d="m15.66,3.33l.19-1.17c.04-.24-.12-.46-.36-.5-.24-.04-.46.12-.5.36l-.19,1.17c-.04.24.12.46.36.5.02,0,.05,0,.07,0,.21,0,.39-.15.43-.36Z"/><path class="cls-4" d="m17.28,3.97l1.48-2.49c.12-.21.06-.47-.15-.6s-.47-.06-.6.15l-1.48,2.49c-.12.21-.06.47.15.6.07.04.15.06.22.06.15,0,.29-.08.38-.21Z"/><path class="cls-5" d="m18.5,5.37l1.24-.9c.2-.14.24-.41.1-.61-.14-.2-.41-.24-.61-.1l-1.24.9c-.2.14-.24.41-.1.61.08.12.22.18.36.18.09,0,.18-.03.25-.08Z"/><path class="cls-2" d="m19.17,7.02l2.82-.87c.23-.07.36-.31.29-.55-.07-.23-.31-.36-.55-.29l-2.82.87c-.23.07-.36.31-.29.55.06.19.23.31.42.31.04,0,.09,0,.13-.02Z"/><path class="cls-3" d="m21.29,8.58c0-.24-.2-.44-.44-.44h-1.79c-.24,0-.44.2-.44.44s.2.44.44.44h1.79c.24,0,.44-.19.44-.44Z"/><path class="cls-6" d="m16.6,7.82c-.32-1.27-1.23-2.32-2.45-2.81l-.4-.16c-.84-.34-1.79-.34-2.63,0l-1.2.48c-.41.17-.87.18-1.29.04l-1.74-.58c-.89-.29-1.86-.23-2.7.19-1.07.53-1.85,1.51-2.14,2.67l-.04.17c-.57,2.27-.3,4.67.74,6.76.61,1.21.92,2.55.92,3.91,0,1.12.26,2.22.76,3.22.45.9,1.37,1.47,2.37,1.47.35,0,.63-.28.63-.63v-4.39c0-1.04.84-1.88,1.88-1.88s1.88.84,1.88,1.88v4.39c0,.35.28.63.63.63,1.01,0,1.93-.57,2.37-1.47.5-1,.76-2.1.76-3.22,0-1.36.32-2.69.92-3.91,1.05-2.09,1.31-4.49.74-6.76Zm-7.63-.45c-.05.23-.29.38-.52.33-.64-.15-1.01-.25-1.28-.33-.46-.13-.57-.16-1.3-.16-1.59,0-1.81,1.44-1.84,1.68v.68c0,.24-.19.44-.44.44s-.44-.19-.44-.44v-.74c.08-.86.73-2.5,2.71-2.5.82,0,1.01.04,1.54.2.26.08.62.18,1.23.32.23.05.38.29.33.52Z"/></svg>