<?xml version="1.0" encoding="UTF-8"?><svg id="Livello_1" xmlns="http://www.w3.org/2000/svg" xmlns:xlink="http://www.w3.org/1999/xlink" viewBox="0 0 24 24"><defs><style>.cls-1{fill:url(#Sfumatura_senza_nome_4);}.cls-1,.cls-2,.cls-3,.cls-4,.cls-5{stroke-width:0px;}.cls-2{fill:url(#Sfumatura_senza_nome_4-4);}.cls-3{fill:url(#Sfumatura_senza_nome_4-5);}.cls-4{fill:url(#Sfumatura_senza_nome_4-2);}.cls-5{fill:url(#Sfumatura_senza_nome_4-3);}</style><linearGradient id="Sfumatura_senza_nome_4" x1="4.4" y1="6.06" x2="19.6" y2="6.06" gradientUnits="userSpaceOnUse"><stop offset="0" stop-color="#50bcbd"/><stop offset="1" stop-color="#a9d2a5"/></linearGradient><linearGradient id="Sfumatura_senza_nome_4-2" x1="7.65" y1="14.48" x2="16.3" y2="14.48" xlink:href="#Sfumatura_senza_nome_4"/><linearGradient id="Sfumatura_senza_nome_4-3" x1="9.93" y1="17.52" x2="14.05" y2="17.52" xlink:href="#Sfumatura_senza_nome_4"/><linearGradient id="Sfumatura_senza_nome_4-4" x1="9.93" y1="19.82" x2="14.05" y2="19.82" xlink:href="#Sfumatura_senza_nome_4"/><linearGradient id="Sfumatura_senza_nome_4-5" x1="9.95" y1="22.32" x2="14.05" y2="22.32" xlink:href="#Sfumatura_senza_nome_4"/></defs><path class="cls-1" d="m7.23,11.62h9.55c.76,0,1.45-.45,1.78-1.13,0,0,0,0,0-.01,1.05-2.09,1.31-4.49.74-6.76-.32-1.27-1.23-2.32-2.45-2.81l-.4-.16c-.84-.34-1.79-.34-2.63,0l-1.2.48c-.41.17-.87.18-1.29.04l-1.74-.58c-.89-.29-1.86-.23-2.7.19-1.07.53-1.85,1.51-2.14,2.67l-.04.17c-.57,2.27-.3,4.67.74,6.76,0,0,0,0,0,.01.34.68,1.02,1.13,1.78,1.13Zm-1.35-6.89c.07-.86.73-2.5,2.71-2.5.82,0,1.01.04,1.54.2.26.08.62.18,1.23.32.23.05.38.29.33.52-.05.23-.29.38-.52.33-.64-.15-1.01-.25-1.28-.33-.46-.13-.57-.16-1.3-.16-1.59,0-1.81,1.44-1.84,1.68v.68c0,.24-.19.44-.44.44s-.44-.19-.44-.44v-.74Z"/><path class="cls-4" d="m7.65,14.02c0,.34.27.61.61.61h1.67v1.57l4.09-.63v-.94h1.67c.34,0,.61-.27.61-.61v-1.26H7.65v1.26Z"/><polygon class="cls-5" points="9.93 18.5 14.05 17.9 14.05 16.54 9.93 17.17 9.93 18.5"/><polygon class="cls-2" points="9.93 20.8 14.05 20.17 14.05 18.84 9.93 19.47 9.93 20.8"/><path class="cls-3" d="m10.32,22.43l.97.82c.41.34.99.34,1.4,0l.97-.82c.24-.19.39-.51.39-.82v-.46l-4.09.63c.05.24.17.48.36.65Z"/></svg>