<?xml version="1.0" encoding="UTF-8"?><svg id="Livello_1" xmlns="http://www.w3.org/2000/svg" xmlns:xlink="http://www.w3.org/1999/xlink" viewBox="0 0 24 24"><defs><style>.cls-1{fill:url(#Sfumatura_senza_nome_4);}.cls-1,.cls-2{stroke-width:0px;}.cls-2{fill:url(#Sfumatura_senza_nome_4-2);}</style><linearGradient id="Sfumatura_senza_nome_4" x1="4.4" y1="6.5" x2="19.6" y2="6.5" gradientUnits="userSpaceOnUse"><stop offset="0" stop-color="#50bcbd"/><stop offset="1" stop-color="#a9d2a5"/></linearGradient><linearGradient id="Sfumatura_senza_nome_4-2" x1="5.92" y1="18.49" x2="18.08" y2="18.49" xlink:href="#Sfumatura_senza_nome_4"/></defs><path class="cls-1" d="m5.92,12.09h3.26l.53-1.33c.11-.27.38-.45.67-.45h3.21c.3,0,.56.18.67.45l.53,1.33h3.28c.13-.41.29-.81.48-1.19,1.05-2.09,1.31-4.49.74-6.76-.32-1.27-1.23-2.32-2.45-2.81l-.4-.16c-.84-.34-1.79-.34-2.63,0l-1.2.48c-.41.17-.87.18-1.29.04l-1.74-.58c-.89-.29-1.86-.23-2.7.19-1.07.53-1.85,1.51-2.14,2.67l-.04.17c-.57,2.27-.3,4.67.74,6.76.19.39.35.78.48,1.19Zm-.05-6.94c.07-.86.73-2.5,2.71-2.5.82,0,1.01.04,1.54.2.26.08.62.18,1.23.32.23.05.38.29.33.52-.05.23-.29.38-.52.33-.64-.15-1.01-.25-1.28-.33-.46-.13-.57-.16-1.3-.16-1.59,0-1.81,1.44-1.84,1.68v.68c0,.24-.19.44-.44.44s-.44-.19-.44-.44v-.74Z"/><path class="cls-2" d="m17.81,15.68h-3.01l-.53-1.33c-.11-.27-.38-.45-.67-.45h-3.21c-.3,0-.56.18-.67.45l-.53,1.33h-3.26c.29.88.44,1.79.44,2.72,0,1.12.26,2.22.76,3.22.45.9,1.37,1.47,2.37,1.47.35,0,.63-.28.63-.63v-4.39c0-1.04.84-1.88,1.88-1.88s1.88.84,1.88,1.88v4.39c0,.35.28.63.63.63,1.01,0,1.93-.57,2.37-1.47.5-1,.76-2.1.76-3.22,0-.93.15-1.84.44-2.72h-.27Z"/></svg>