<?xml version="1.0" encoding="UTF-8"?><svg id="Livello_1" xmlns="http://www.w3.org/2000/svg" xmlns:xlink="http://www.w3.org/1999/xlink" viewBox="0 0 24 24"><defs><style>.cls-1{fill:url(#Sfumatura_senza_nome_4);stroke-width:0px;}</style><linearGradient id="Sfumatura_senza_nome_4" x1="1.11" y1="13.12" x2="23.7" y2="13.12" gradientUnits="userSpaceOnUse"><stop offset="0" stop-color="#50bcbd"/><stop offset="1" stop-color="#a9d2a5"/></linearGradient></defs><path class="cls-1" d="m23.28,6.36c-.57.11-1.05.45-1.34.93-.37-.7-.95-1.09-1.7-1.09-.92,0-1.9.67-2.33,1.82-.58-1.09-1.67-1.83-2.89-1.83s-2.38.78-2.95,1.92c-.52-1.06-1.66-1.83-2.9-1.83s-2.37.7-2.9,1.72c-.5-.92-1.4-1.52-2.22-1.52-.53,0-.99.21-1.35.58-.2-.48-.58-.88-1.08-1.09-.18-.07-.39.01-.47.19-.08.18.01.39.19.47.48.2.79.67.79,1.19,0,.04,0,.09,0,.13,0,.01,0,.02,0,.03-.15.41-.23.88-.23,1.4,0,.34-.01.68-.02,1-.04,1.27-.08,2.47.61,3.18.4.41.98.61,1.78.61.6,0,1.32-.07,1.81-.46.19.47.56.86,1.04,1,.57.18,1.3.27,2.06.27.37,0,1.31-.03,2.07-.27.38-.12.69-.4.9-.75.17.18.37.35.62.49v1.19s0,.03,0,.04c.14,1.13,1.59,1.99,3.37,1.99.46,0,.89-.06,1.29-.16l2.26,2.5c.07.08.17.12.27.12.09,0,.17-.03.24-.09.15-.13.16-.36.03-.5l-2.06-2.28c.43-.2.78-.46,1.02-.77l3.34,3.69c.07.08.17.12.27.12.09,0,.17-.03.24-.09.15-.13.16-.36.03-.5l-3.54-3.92s.01-.05.02-.08c0-.01,0-.03,0-.04,0-.5,0-1.01,0-1.51.16.03.32.04.49.04h.02c.81,0,1.4-.2,1.79-.6.68-.69.65-1.83.62-3.14,0-.28-.01-.56-.01-.85,0-.4-.03-.76-.08-1.1.02-.05.04-.1.04-.15,0-.62.44-1.15,1.05-1.26.19-.04.32-.22.29-.42s-.22-.32-.42-.29ZM4.25,13.46c-.6,0-1.01-.13-1.27-.39-.48-.49-.44-1.5-.41-2.66.01-.33.02-.68.02-1.03,0-1.29.59-2.18,1.43-2.18s1.9,1.04,1.9,2.32v2.79c0,.61-.13,1.15-1.68,1.15Zm7.4-.37c0,.43-.28.84-.65.96-.66.21-1.51.23-1.85.23-.69,0-1.35-.09-1.85-.24-.38-.12-.66-.53-.66-.97v-3.98c.14-1.17,1.24-2.09,2.51-2.09s2.5,1.11,2.5,2.38v.48c0,.81,0,2.36,0,3.23Zm.73-.1v-3.13c0-1.63,1.18-2.95,2.63-2.95,1.2,0,2.23.92,2.54,2.15-.03-.02-.06-.03-.1-.04-.02-.01-.04-.02-.06-.03-.08-.04-.17-.07-.25-.1-.02,0-.04-.01-.06-.02-.09-.03-.18-.06-.27-.08-.02,0-.04,0-.06-.01-.09-.02-.19-.04-.28-.05-.04,0-.07,0-.11,0-.07,0-.15-.01-.22-.01,0,0,0,0-.01,0,0,0,0,0-.01,0-1.87,0-3.39,1.67-3.39,3.72v1.13c-.19-.18-.32-.38-.35-.59Zm5.64,1.17c-.05-.06-.12-.1-.2-.11l-2.53-.5c-.19-.04-.38.09-.42.28-.04.19.09.38.28.42l2.41.48,1.1,1.21c-.35.59-1.38,1.02-2.54,1.02-1.36,0-2.55-.6-2.66-1.34v-1.17c.03-.05.06-.11.06-.19,0-.02,0-.05,0-.07v-1.76c0-1.65,1.17-3,2.62-3.01.63,0,1.22.26,1.67.67.06.05.11.11.17.17.04.04.08.09.11.13.04.04.07.09.11.13.03.04.06.09.09.14.02.04.05.08.07.11.03.05.05.1.08.15.02.04.04.08.06.12.02.05.04.1.07.15.02.05.04.09.05.14.02.05.03.1.05.15.02.05.03.11.04.16.01.05.02.09.03.14.01.07.02.13.03.2,0,.04.01.08.02.11.01.11.02.22.02.32,0,.53,0,1.07,0,1.6,0,.32,0,.64,0,.97l-.76-.85Zm3.27-1.09c-.26.26-.67.39-1.28.39h0v.36-.36c-.18,0-.34-.02-.5-.05,0-.32,0-.65,0-.97,0-.13,0-.26-.02-.39,0-.05-.01-.1-.02-.14,0-.08-.02-.16-.03-.23-.01-.07-.03-.13-.05-.19-.01-.06-.03-.11-.04-.17-.02-.07-.05-.15-.07-.22-.01-.04-.03-.08-.04-.13-.03-.08-.07-.15-.1-.23-.02-.03-.03-.07-.05-.1-.04-.08-.08-.15-.12-.22-.02-.03-.03-.06-.05-.09-.04-.07-.09-.14-.14-.21-.02-.03-.04-.06-.06-.09-.05-.06-.1-.13-.15-.19-.03-.03-.05-.06-.08-.09-.03-.03-.06-.06-.09-.09,0-.11,0-.21,0-.31,0-1.6,1.08-2.45,1.86-2.45,1.31,0,1.45,1.87,1.45,2.67,0,.3,0,.59.01.87.03,1.15.05,2.14-.42,2.62Z"/></svg>