<?xml version="1.0" encoding="UTF-8"?><svg id="Livello_1" xmlns="http://www.w3.org/2000/svg" xmlns:xlink="http://www.w3.org/1999/xlink" viewBox="0 0 24 24"><defs><style>.cls-1{fill:url(#Sfumatura_senza_nome_4);stroke-width:0px;}</style><linearGradient id="Sfumatura_senza_nome_4" x1="1.09" y1="12" x2="22.91" y2="12" gradientUnits="userSpaceOnUse"><stop offset="0" stop-color="#50bcbd"/><stop offset="1" stop-color="#a9d2a5"/></linearGradient></defs><path class="cls-1" d="m22.89,7.7c-.08-.18-.28-.27-.47-.19-.5.21-.88.61-1.08,1.09-.36-.37-.82-.58-1.35-.58-.81,0-1.72.61-2.22,1.52-.54-1.02-1.66-1.72-2.9-1.72s-2.33.74-2.87,1.77c-.54-1.02-1.65-1.77-2.87-1.77s-2.37.7-2.9,1.72c-.5-.92-1.4-1.52-2.22-1.52-.53,0-.99.21-1.35.58-.2-.48-.58-.88-1.08-1.09-.18-.07-.39.01-.47.19-.08.18.01.39.19.47.48.2.79.67.79,1.19,0,.04,0,.09,0,.13,0,.01,0,.02,0,.03-.15.41-.23.88-.23,1.4,0,.34-.01.68-.02,1-.04,1.27-.08,2.47.61,3.18.4.41.98.61,1.78.61.6,0,1.32-.07,1.81-.46.19.47.56.86,1.04,1,.57.18,1.3.27,2.06.27.37,0,1.31-.03,2.07-.27.33-.11.6-.33.8-.62.2.29.48.52.8.62.76.24,1.7.27,2.07.27.76,0,1.49-.1,2.06-.27.47-.15.85-.53,1.04-1,.49.39,1.21.46,1.81.46.8,0,1.38-.2,1.78-.61.69-.71.65-1.91.61-3.18-.01-.33-.02-.66-.02-1,0-.52-.08-1-.23-1.4,0-.01,0-.02,0-.03,0-.04,0-.09,0-.13,0-.52.31-.99.79-1.19.18-.08.27-.28.19-.47Zm-4.79,3.36c0-1.29,1.04-2.32,1.9-2.32s1.43.9,1.43,2.18c0,.35.01.69.02,1.03,0,.21.01.42.02.61h-.7v-.98h-.49v.98h-.98v-.98h-.49v.98h-.71v-1.5Zm-5.72-.14c0-1.27,1.17-2.38,2.5-2.38s2.37.92,2.51,2.09v1.93h-1.53v-.98h-.49v.98h-.98v-.98h-.49v.98h-1.53c0-.44,0-.85,0-1.16v-.48Zm-5.75-.29c.14-1.17,1.24-2.09,2.51-2.09s2.5,1.11,2.5,2.38v.48c0,.31,0,.72,0,1.16h-1.52v-.98h-.49v.98h-.98v-.98h-.49v.98h-1.53v-1.93Zm-4.04.29c0-1.29.59-2.18,1.43-2.18s1.9,1.04,1.9,2.32v1.5h-.71v-.98h-.49v.98h-.98v-.98h-.49v.98h-.7c0-.2,0-.4.02-.61.01-.33.02-.68.02-1.03Zm3.33,2.93c0,.61-.13,1.15-1.68,1.15-.6,0-1.01-.13-1.27-.39-.32-.33-.41-.89-.42-1.56h.7v.98h.49v-.98h.98v.98h.49v-.98h.71v.81Zm5.08,1.73c-.66.21-1.51.23-1.85.23-.69,0-1.35-.09-1.85-.24-.38-.12-.66-.53-.66-.97v-1.56h1.53v.98h.49v-.98h.98v.98h.49v-.98h1.52c0,.58,0,1.16,0,1.58,0,.43-.28.84-.65.96Zm6.4-.97c0,.44-.28.85-.66.97-.51.16-1.16.24-1.85.24-.34,0-1.19-.02-1.85-.23-.36-.12-.64-.53-.65-.96,0-.42,0-1,0-1.58h1.53v.98h.49v-.98h.98v.98h.49v-.98h1.53v1.56Zm2.39.39c-1.55,0-1.68-.54-1.68-1.15v-.81h.71v.98h.49v-.98h.98v.98h.49v-.98h.7c-.01.68-.1,1.23-.42,1.56-.26.26-.67.39-1.27.39Z"/></svg>