<?xml version="1.0" encoding="UTF-8"?><svg id="Livello_1" xmlns="http://www.w3.org/2000/svg" xmlns:xlink="http://www.w3.org/1999/xlink" viewBox="0 0 24 24"><defs><style>.cls-1{fill:url(#Sfumatura_senza_nome_4);}.cls-1,.cls-2,.cls-3,.cls-4{stroke-width:0px;}.cls-2{fill:url(#Sfumatura_senza_nome_4-4);}.cls-3{fill:url(#Sfumatura_senza_nome_4-2);}.cls-4{fill:url(#Sfumatura_senza_nome_4-3);}</style><linearGradient id="Sfumatura_senza_nome_4" x1="2.59" y1="16.74" x2="5.26" y2="16.74" gradientUnits="userSpaceOnUse"><stop offset="0" stop-color="#50bcbd"/><stop offset="1" stop-color="#a9d2a5"/></linearGradient><linearGradient id="Sfumatura_senza_nome_4-2" x1="17.11" y1="1.98" x2="20.11" y2="1.98" xlink:href="#Sfumatura_senza_nome_4"/><linearGradient id="Sfumatura_senza_nome_4-3" x1="4.99" y1="14.22" x2="20.19" y2="14.22" xlink:href="#Sfumatura_senza_nome_4"/><linearGradient id="Sfumatura_senza_nome_4-4" x1="19.81" y1="4.53" x2="21.41" y2="4.53" xlink:href="#Sfumatura_senza_nome_4"/></defs><path class="cls-1" d="m3.93,18.07c.09,0,.17-.05.21-.13l.15-.28c.13-.24.33-.43.56-.56l.28-.15c.08-.04.13-.12.13-.21s-.05-.17-.13-.21l-.28-.15c-.24-.13-.43-.33-.56-.56l-.15-.28c-.08-.16-.34-.16-.42,0l-.15.28c-.13.24-.33.43-.56.56l-.28.15c-.08.04-.13.12-.13.21s.05.17.13.21l.28.15c.24.13.43.33.56.56l.15.28c.04.08.12.13.21.13Zm-.6-1.34c.24-.15.44-.35.6-.6.15.24.36.44.6.6-.24.15-.44.35-.6.6-.15-.24-.35-.44-.6-.6Z"/><path class="cls-3" d="m20.11,1.98c0-.09-.05-.17-.13-.21l-.32-.18c-.28-.15-.51-.38-.66-.66l-.18-.32c-.08-.16-.34-.16-.42,0l-.18.32c-.15.28-.38.51-.66.66l-.32.18c-.08.04-.13.12-.13.21s.05.17.13.21l.32.18c.28.15.51.38.66.66l.18.32c.04.08.12.13.21.13s.17-.05.21-.13l.18-.32c.15-.28.38-.51.66-.66l.32-.18c.08-.04.13-.12.13-.21Zm-1.5.75c-.18-.31-.44-.57-.75-.75.31-.18.57-.44.75-.75.18.31.44.57.75.75-.31.18-.57.44-.75.75Z"/><path class="cls-4" d="m19.89,8.15c-.32-1.27-1.23-2.32-2.45-2.81l-.4-.16c-.84-.34-1.79-.34-2.63,0l-1.2.48c-.41.17-.87.18-1.29.04l-1.74-.58c-.89-.29-1.86-.23-2.7.19-1.07.53-1.85,1.51-2.14,2.67l-.04.17c-.57,2.27-.3,4.67.74,6.76.61,1.21.92,2.55.92,3.91,0,1.12.26,2.22.76,3.22.45.9,1.37,1.47,2.37,1.47.35,0,.63-.28.63-.63v-4.39c0-1.04.84-1.88,1.88-1.88s1.88.84,1.88,1.88v4.39c0,.35.28.63.63.63,1.01,0,1.93-.57,2.37-1.47.5-1,.76-2.1.76-3.22,0-1.36.32-2.69.92-3.91,1.05-2.09,1.31-4.49.74-6.76Zm-7.63-.45c-.05.23-.29.38-.52.33-.64-.15-1.01-.25-1.28-.33-.46-.13-.57-.16-1.3-.16-1.59,0-1.81,1.44-1.84,1.68v.68c0,.24-.19.44-.44.44s-.44-.19-.44-.44v-.74c.08-.86.73-2.5,2.71-2.5.82,0,1.01.04,1.54.2.26.08.62.18,1.23.32.23.05.38.29.33.52Zm4.61,7.03h-.32v.32c0,.13-.11.24-.24.24s-.24-.11-.24-.24v-.32h-.32c-.13,0-.24-.11-.24-.24s.11-.24.24-.24h.32v-.32c0-.13.11-.24.24-.24s.24.11.24.24v.32h.32c.13,0,.24.11.24.24s-.11.24-.24.24Z"/><path class="cls-2" d="m21.17,4.28h-.32v-.32c0-.13-.11-.24-.24-.24s-.24.11-.24.24v.32h-.32c-.13,0-.24.11-.24.24s.11.24.24.24h.32v.32c0,.13.11.24.24.24s.24-.11.24-.24v-.32h.32c.13,0,.24-.11.24-.24s-.11-.24-.24-.24Z"/></svg>