<?xml version="1.0" encoding="UTF-8"?><svg id="Livello_1" xmlns="http://www.w3.org/2000/svg" xmlns:xlink="http://www.w3.org/1999/xlink" viewBox="0 0 170.08 41.65"><defs><style>.cls-1{opacity:.75;}.cls-1,.cls-2,.cls-3,.cls-4{stroke-width:0px;}.cls-1,.cls-4{fill:#fff;}.cls-2{fill:url(#Sfumatura_senza_nome_4);}.cls-3{fill:#575756;}</style><linearGradient id="Sfumatura_senza_nome_4" x1="0" y1="20.82" x2="41.64" y2="20.82" gradientUnits="userSpaceOnUse"><stop offset="0" stop-color="#50bcbd"/><stop offset="1" stop-color="#a9d2a5"/></linearGradient></defs><path class="cls-3" d="m47.79,9.24l1.06-1.04c.76.92,1.63,1.38,2.62,1.38.51,0,.95-.15,1.32-.45s.55-.69.55-1.16c0-.31-.08-.58-.24-.82s-.38-.44-.66-.6-.57-.31-.87-.43-.63-.27-1.01-.43-.68-.32-.92-.48c-.91-.6-1.36-1.39-1.36-2.35,0-.79.31-1.47.93-2.02S50.61.01,51.53.01c1.06,0,2.02.36,2.88,1.07l-.9,1.12c-.58-.49-1.22-.74-1.91-.74-.48,0-.89.13-1.24.39s-.53.61-.53,1.05c0,.26.08.49.24.7s.38.38.66.54.57.29.87.42.63.27.99.43.66.33.9.49c.93.61,1.4,1.43,1.4,2.45,0,.93-.32,1.68-.95,2.25s-1.43.86-2.38.86c-.74,0-1.43-.15-2.07-.46s-1.2-.75-1.68-1.33Z"/><path class="cls-3" d="m55.4,1.62V.16h7.35v1.46h-2.91v9.26h-1.53V1.62h-2.91Z"/><path class="cls-3" d="m68.64,11.03c-.65,0-1.27-.12-1.84-.37s-1.07-.59-1.48-1.04c-.74-.81-1.11-1.87-1.11-3.18V.16h1.53v6.35c0,.92.22,1.62.67,2.12.57.63,1.31.95,2.24.95s1.67-.32,2.24-.95c.45-.49.67-1.2.67-2.12V.16h1.53v6.28c0,1.31-.37,2.37-1.12,3.18-.41.44-.91.79-1.48,1.04s-1.19.37-1.84.37Z"/><path class="cls-3" d="m78.89,10.88h-3.21V.16h3.21c1.53,0,2.76.34,3.68,1.02.67.5,1.19,1.13,1.57,1.89s.57,1.58.57,2.46-.19,1.7-.57,2.47-.9,1.39-1.56,1.88c-.92.67-2.15,1.01-3.69,1.01Zm3.95-3.68c.23-.53.34-1.09.34-1.68s-.11-1.15-.34-1.67-.55-.96-.96-1.33c-.35-.3-.77-.53-1.25-.68s-1.09-.22-1.82-.22h-1.61v7.8h1.61c.73,0,1.33-.07,1.82-.22s.9-.37,1.25-.68c.41-.36.73-.8.96-1.33Z"/><path class="cls-3" d="m86.62,10.88V.16h1.53v10.72h-1.53Z"/><path class="cls-3" d="m90.48,7.7c-.27-.68-.41-1.41-.41-2.18s.14-1.49.41-2.18.65-1.27,1.12-1.75,1.04-.87,1.7-1.16,1.37-.43,2.12-.43c1,0,1.91.24,2.72.72s1.46,1.14,1.93,1.98.7,1.78.7,2.8-.23,1.96-.7,2.8-1.11,1.5-1.93,1.98-1.73.72-2.72.72c-.75,0-1.45-.14-2.12-.43s-1.23-.67-1.7-1.16-.85-1.07-1.12-1.75Zm1.11-2.18c0,1.16.36,2.13,1.09,2.9s1.64,1.16,2.74,1.16,2.01-.39,2.74-1.16,1.09-1.74,1.09-2.9-.37-2.12-1.1-2.9-1.64-1.16-2.73-1.16-2,.39-2.73,1.16-1.1,1.74-1.1,2.9Z"/><path class="cls-3" d="m48.29,23.01c-.27-.68-.41-1.41-.41-2.18s.14-1.49.41-2.18.65-1.27,1.12-1.75,1.04-.87,1.7-1.16,1.37-.43,2.12-.43c1,0,1.91.24,2.72.72s1.46,1.14,1.93,1.98.7,1.78.7,2.8-.23,1.96-.7,2.8-1.11,1.5-1.93,1.98-1.73.72-2.72.72c-.75,0-1.45-.14-2.12-.43s-1.23-.67-1.7-1.16-.85-1.07-1.12-1.75Zm1.11-2.18c0,1.16.36,2.13,1.09,2.9s1.64,1.16,2.74,1.16,2.01-.39,2.74-1.16,1.09-1.74,1.09-2.9-.37-2.12-1.1-2.9-1.64-1.16-2.73-1.16-2,.39-2.73,1.16-1.1,1.74-1.1,2.9Z"/><path class="cls-3" d="m63.71,26.19h-3.21v-10.72h3.21c1.53,0,2.76.34,3.68,1.02.67.5,1.19,1.13,1.57,1.89s.57,1.58.57,2.46-.19,1.7-.57,2.47-.9,1.39-1.56,1.88c-.92.67-2.15,1.01-3.69,1.01Zm3.95-3.68c.23-.53.34-1.09.34-1.68s-.11-1.15-.34-1.67-.55-.96-.96-1.33c-.35-.3-.77-.53-1.25-.68s-1.09-.22-1.82-.22h-1.61v7.8h1.61c.73,0,1.33-.07,1.82-.22s.9-.37,1.25-.68c.41-.36.73-.8.96-1.33Z"/><path class="cls-3" d="m71.32,23.01c-.27-.68-.41-1.41-.41-2.18s.14-1.49.41-2.18.65-1.27,1.12-1.75,1.04-.87,1.7-1.16,1.37-.43,2.12-.43c1,0,1.91.24,2.72.72s1.46,1.14,1.93,1.98.7,1.78.7,2.8-.23,1.96-.7,2.8-1.11,1.5-1.93,1.98-1.73.72-2.72.72c-.75,0-1.45-.14-2.12-.43s-1.23-.67-1.7-1.16-.85-1.07-1.12-1.75Zm1.11-2.18c0,1.16.36,2.13,1.09,2.9s1.64,1.16,2.74,1.16,2.01-.39,2.74-1.16,1.09-1.74,1.09-2.9-.37-2.12-1.1-2.9-1.64-1.16-2.73-1.16-2,.39-2.73,1.16-1.1,1.74-1.1,2.9Z"/><path class="cls-3" d="m91.49,26.19l-6.43-7.87v7.87h-1.53v-10.72h1.08l6.43,7.87v-7.87h1.53v10.72h-1.08Z"/><path class="cls-3" d="m94.17,16.93v-1.46h7.35v1.46h-2.91v9.26h-1.53v-9.26h-2.91Z"/><path class="cls-3" d="m102.23,23.01c-.27-.68-.41-1.41-.41-2.18s.14-1.49.41-2.18.65-1.27,1.12-1.75,1.04-.87,1.7-1.16,1.37-.43,2.12-.43c1,0,1.91.24,2.72.72s1.46,1.14,1.93,1.98.7,1.78.7,2.8-.23,1.96-.7,2.8-1.11,1.5-1.93,1.98-1.73.72-2.72.72c-.75,0-1.45-.14-2.12-.43s-1.23-.67-1.7-1.16-.85-1.07-1.12-1.75Zm1.11-2.18c0,1.16.36,2.13,1.09,2.9s1.64,1.16,2.74,1.16,2.01-.39,2.74-1.16,1.09-1.74,1.09-2.9-.37-2.12-1.1-2.9-1.64-1.16-2.73-1.16-2,.39-2.73,1.16-1.1,1.74-1.1,2.9Z"/><path class="cls-3" d="m114.44,26.19v-10.72h1.53v10.72h-1.53Z"/><path class="cls-3" d="m125.78,26.19l-1.13-2.76h-4.52l-1.12,2.76h-1.59l4.44-10.72h1.08l4.43,10.72h-1.59Zm-3.38-8.19l-1.65,3.98h3.3l-1.65-3.98Z"/><path class="cls-3" d="m126.76,16.93v-1.46h7.35v1.46h-2.91v9.26h-1.53v-9.26h-2.91Z"/><path class="cls-3" d="m138.47,21.14h-1.23v5.05h-1.53v-10.72h3.75c.87,0,1.56.21,2.09.63.33.27.59.59.77.98s.28.79.28,1.23-.09.85-.28,1.23-.44.71-.77.98c-.36.3-.78.49-1.26.57l3.84,5.11h-1.85l-3.81-5.05Zm-1.23-1.45h2.15c.59,0,1.02-.13,1.29-.4s.4-.59.4-.98-.13-.72-.4-.98-.69-.4-1.29-.4h-2.15v2.76Z"/><path class="cls-3" d="m145.51,26.19v-10.72h1.53v10.72h-1.53Z"/><path class="cls-3" d="m148.95,20.83c0-1.02.23-1.95.7-2.79s1.12-1.51,1.95-1.99,1.75-.73,2.77-.73c.76,0,1.49.15,2.18.44s1.27.7,1.74,1.21l-1.02,1.01c-.32-.35-.75-.64-1.27-.87s-1.06-.34-1.62-.34c-1.1,0-2.02.39-2.77,1.17s-1.13,1.74-1.13,2.89c0,.79.18,1.5.53,2.12s.84,1.1,1.45,1.44,1.29.5,2.05.5c.66,0,1.25-.15,1.77-.44s.96-.65,1.31-1.08l1.08.98c-.47.6-1.08,1.08-1.82,1.44s-1.53.55-2.34.55-1.53-.14-2.21-.42-1.28-.66-1.76-1.14-.87-1.07-1.16-1.75-.42-1.42-.42-2.2Z"/><path class="cls-3" d="m159.78,23.01c-.27-.68-.41-1.41-.41-2.18s.14-1.49.41-2.18.65-1.27,1.12-1.75,1.04-.87,1.7-1.16,1.37-.43,2.12-.43c1,0,1.91.24,2.72.72s1.46,1.14,1.93,1.98.7,1.78.7,2.8-.23,1.96-.7,2.8-1.11,1.5-1.93,1.98-1.73.72-2.72.72c-.75,0-1.45-.14-2.12-.43s-1.23-.67-1.7-1.16-.85-1.07-1.12-1.75Zm1.11-2.18c0,1.16.36,2.13,1.09,2.9s1.64,1.16,2.74,1.16,2.01-.39,2.74-1.16,1.09-1.74,1.09-2.9-.37-2.12-1.1-2.9-1.64-1.16-2.73-1.16-2,.39-2.73,1.16-1.1,1.74-1.1,2.9Z"/><path class="cls-3" d="m47.88,36.14c0-1.02.23-1.95.7-2.79s1.12-1.51,1.95-1.99,1.75-.73,2.77-.73c.76,0,1.49.15,2.18.44s1.27.7,1.74,1.21l-1.02,1.01c-.32-.35-.75-.64-1.27-.87s-1.06-.34-1.62-.34c-1.1,0-2.02.39-2.77,1.17s-1.13,1.74-1.13,2.89c0,.79.18,1.5.53,2.12s.84,1.1,1.45,1.44,1.29.5,2.05.5c.66,0,1.25-.15,1.77-.44s.96-.65,1.31-1.08l1.08.98c-.47.6-1.08,1.08-1.82,1.44s-1.53.55-2.34.55-1.53-.14-2.21-.42-1.28-.66-1.76-1.14-.87-1.07-1.16-1.75-.42-1.42-.42-2.2Z"/><path class="cls-3" d="m59.28,41.5v-10.72h1.53v10.72h-1.53Z"/><path class="cls-3" d="m70.62,41.5l-1.13-2.76h-4.52l-1.12,2.76h-1.59l4.44-10.72h1.08l4.43,10.72h-1.59Zm-3.38-8.19l-1.65,3.98h3.3l-1.65-3.98Z"/><path class="cls-3" d="m76.42,36.45h-1.23v5.05h-1.53v-10.72h3.75c.87,0,1.56.21,2.09.63.33.27.59.59.77.98s.28.79.28,1.23-.09.85-.28,1.23-.44.71-.77.98c-.36.3-.78.49-1.26.57l3.84,5.11h-1.85l-3.81-5.05Zm-1.23-1.45h2.15c.59,0,1.02-.13,1.29-.4s.4-.59.4-.98-.13-.72-.4-.98-.69-.4-1.29-.4h-2.15v2.76Z"/><path class="cls-3" d="m90.74,41.5l-1.13-2.76h-4.52l-1.12,2.76h-1.59l4.44-10.72h1.08l4.43,10.72h-1.59Zm-3.38-8.19l-1.65,3.98h3.3l-1.65-3.98Z"/><path class="cls-3" d="m102.67,34.29l-3.14,4.92h-1.07l-3.14-4.92v7.21h-1.53v-10.72h1.08l4.13,6.54,4.13-6.54h1.07v10.72h-1.53v-7.21Z"/><path class="cls-3" d="m108.48,35h3.52v1.45h-3.52v3.6h4.75v1.46h-6.28v-10.72h6.13v1.46h-4.6v2.76Z"/><path class="cls-3" d="m116.75,30.78v9.26h4.75v1.46h-6.28v-10.72h1.53Z"/><path class="cls-3" d="m124.7,30.78v9.26h4.75v1.46h-6.28v-10.72h1.53Z"/><path class="cls-3" d="m138.94,41.5l-1.13-2.76h-4.52l-1.12,2.76h-1.59l4.44-10.72h1.08l4.43,10.72h-1.59Zm-3.38-8.19l-1.65,3.98h3.3l-1.65-3.98Z"/><rect class="cls-2" width="41.64" height="41.64"/><polygon class="cls-4" points="21.02 22.56 12.11 35.17 12.11 9.95 29.94 9.95 29.94 22.56 21.02 22.56"/><polygon class="cls-1" points="29.94 35.17 29.94 22.56 21.02 22.56 29.94 35.17"/></svg>